HIERARCHY
ROOT Hips
{
	OFFSET 0.000000 0.000000 0.000000 
	CHANNELS 6 Xposition Yposition Zposition Zrotation Yrotation Xrotation
	JOINT LeftUpLeg
	{
		OFFSET 1.363060 -1.794630 0.839290 
		CHANNELS 3 Zrotation Yrotation Xrotation
		JOINT LeftLeg
		{
			OFFSET 2.448110 -6.726130 0.000000 
			CHANNELS 3 Zrotation Yrotation Xrotation
			JOINT LeftFoot
			{
				OFFSET 2.562200 -7.039590 0.000000 
				CHANNELS 3 Zrotation Yrotation Xrotation
				JOINT LeftToeBase
				{
					OFFSET 0.157640 -0.433110 2.322550 
					CHANNELS 3 Zrotation Yrotation Xrotation
					End Site
					{
						OFFSET 0.000000 0.000000 0.000000 
					}
				}
			}
		}
	}
	JOINT RightUpLeg
	{
		OFFSET -1.305520 -1.794630 0.839290 
		CHANNELS 3 Zrotation Yrotation Xrotation
		JOINT RightLeg
		{
			OFFSET -2.542530 -6.985550 0.000000 
			CHANNELS 3 Zrotation Yrotation Xrotation
			JOINT RightFoot
			{
				OFFSET -2.568260 -7.056230 0.000000 
				CHANNELS 3 Zrotation Yrotation Xrotation
				JOINT RightToeBase
				{
					OFFSET -0.164730 -0.452590 2.363150 
					CHANNELS 3 Zrotation Yrotation Xrotation
					End Site
					{
						OFFSET 0.000000 0.000000 0.000000 
					}
				}
			}
		}
	}
	JOINT Spine
	{
		OFFSET 0.028270 2.035590 -0.193380 
		CHANNELS 3 Zrotation Yrotation Xrotation
		JOINT Spine1
		{
			OFFSET 0.056720 2.048850 -0.042750 
			CHANNELS 3 Zrotation Yrotation Xrotation
			JOINT Neck1
			{
				OFFSET -0.054170 1.746240 0.172020 
				CHANNELS 3 Zrotation Yrotation Xrotation
				JOINT Head
				{
					OFFSET 0.104070 1.761360 -0.123970 
					CHANNELS 3 Zrotation Yrotation Xrotation
					End Site
					{
						OFFSET 0.000000 0.000000 0.000000 
					}
				}
			}
			JOINT LeftArm
			{
				OFFSET 3.362410 1.200890 -0.311210 
				CHANNELS 3 Zrotation Yrotation Xrotation
				JOINT LeftForeArm
				{
					OFFSET 4.983000 -0.000000 -0.000000 
					CHANNELS 3 Zrotation Yrotation Xrotation
					JOINT LeftHand
					{
						OFFSET 3.483560 -0.000000 -0.000000 
						CHANNELS 3 Zrotation Yrotation Xrotation
						JOINT LeftHandIndex1
						{
							OFFSET 0.715260 -0.000000 -0.000000 
							CHANNELS 3 Zrotation Yrotation Xrotation
							End Site
							{
								OFFSET 0.000000 0.000000 0.000000 
							}
						}
					}
				}
			}
			JOINT RightArm
			{
				OFFSET -3.136600 1.374050 -0.404650 
				CHANNELS 3 Zrotation Yrotation Xrotation
				JOINT RightForeArm
				{
					OFFSET -5.241900 -0.000000 -0.000000 
					CHANNELS 3 Zrotation Yrotation Xrotation
					JOINT RightHand
					{
						OFFSET -3.444170 -0.000000 -0.000000 
						CHANNELS 3 Zrotation Yrotation Xrotation
						JOINT RightHandIndex1
						{
							OFFSET -0.622530 -0.000000 -0.000000 
							CHANNELS 3 Zrotation Yrotation Xrotation
							End Site
							{
								OFFSET 0.000000 0.000000 0.000000 
							}
						}
					}
				}
			}
		}
	}
}
MOTION
Frames: 6
Frame Time: 0.041667
50.275941 17.163227 15.920076 -178.296253 -49.171172 176.104896 -17.702482 6.502256 -1.778111 0.225699 7.397089 19.856791 -1.303096 8.538714 -10.913628 0.004000 0.410000 1.126500 21.101099 2.818156 -5.664095 -1.567556 -11.178974 31.271504 1.367824 -9.023406 -14.436432 -0.004800 -0.446400 1.226700 1.291359 -1.653552 -1.113241 -0.631534 -0.856054 2.791869 5.449590 -0.791008 9.487723 -0.446400 -0.076400 2.482300 -78.056028 3.904859 32.751978 10.227160 -24.143033 -3.532616 -0.797354 -1.694317 -21.541553 -7.125000 0.000000 0.000000 73.391149 -5.261492 30.796946 -12.398423 26.413638 -4.306267 1.157782 0.743547 -2.729290 7.125000 0.000000 0.000000 
50.275083 17.165266 15.919969 -178.361310 -49.185117 176.172438 -17.753232 6.495476 -1.780508 0.220111 7.387878 19.824552 -1.305534 8.548730 -10.910613 0.004400 0.430400 1.182700 21.046184 2.797839 -5.690598 -1.569403 -11.179756 31.276982 1.353308 -8.973359 -14.431062 -0.006400 -0.516000 1.417800 1.289301 -1.644218 -1.112370 -0.620759 -0.851938 2.801537 5.434973 -0.801179 9.472378 -0.464400 -0.082000 2.466300 -78.061138 3.895294 32.743807 10.205709 -24.120374 -3.524990 -0.793430 -1.699912 -21.501702 -7.125000 0.000000 0.000000 73.418698 -5.228360 30.723985 -12.363465 26.368890 -4.290713 1.162522 0.736382 -2.668973 7.125000 0.000000 0.000000 
50.274117 17.165481 15.920183 -178.410429 -49.188613 176.239489 -17.789660 6.522266 -1.809503 0.216420 7.382258 19.804351 -1.298122 8.519283 -10.904655 0.004500 0.435100 1.195400 21.010543 2.813403 -5.730446 -1.572680 -11.184338 31.287920 1.394025 -9.104405 -14.422455 -0.003900 -0.402600 1.106300 1.291629 -1.656521 -1.119621 -0.575906 -0.857701 2.784855 5.433915 -0.778068 9.484149 -0.458400 -0.070600 2.478200 -78.139631 4.192426 32.680151 10.495195 -24.495534 -3.660243 -0.775002 -1.721803 -21.447952 -7.125000 0.000000 0.000000 73.377151 -5.254659 30.799929 -12.378725 26.386686 -4.296176 1.157658 0.737151 -2.690933 7.125000 0.000000 0.000000 
50.273043 17.165051 15.920613 -178.426875 -49.181500 176.244116 -17.809682 6.492313 -1.776124 0.213007 7.374991 19.783221 -1.300605 8.534285 -10.930795 0.005300 0.468700 1.287800 20.993451 2.815131 -5.725383 -1.575461 -11.187909 31.301470 1.373368 -9.038972 -14.431726 -0.004800 -0.448300 1.231900 1.289781 -1.663047 -1.116636 -0.593854 -0.861866 2.802701 5.422691 -0.774109 9.483584 -0.482100 -0.067500 2.482500 -78.099596 4.088079 32.669364 10.394719 -24.368176 -3.615003 -0.778461 -1.713831 -21.459873 -7.125000 0.000000 0.000000 73.412636 -5.223777 30.821050 -12.374839 26.377923 -4.291961 1.159946 0.737553 -2.686527 7.125000 0.000000 0.000000 
50.272184 17.165159 15.920827 -178.457458 -49.180506 176.274210 -17.834759 6.488082 -1.772926 0.210093 7.369640 19.765994 -1.300385 8.535320 -10.937795 0.005600 0.483400 1.328300 20.969929 2.822431 -5.738043 -1.578551 -11.192226 31.315122 1.373241 -9.039515 -14.435630 -0.004700 -0.441000 1.211700 1.289109 -1.656655 -1.117602 -0.584061 -0.858938 2.801311 5.416669 -0.779773 9.481766 -0.486900 -0.070600 2.480500 -78.112050 4.117137 32.675329 10.420865 -24.402864 -3.626968 -0.775571 -1.715127 -21.441927 -7.125000 0.000000 0.000000 73.414926 -5.224046 30.817726 -12.372467 26.374079 -4.290661 1.160230 0.737285 -2.684129 7.125000 0.000000 0.000000 
50.271433 17.165159 15.920935 -178.483977 -49.177975 176.301323 -17.856743 6.487116 -1.769852 0.207154 7.363791 19.747317 -1.300687 8.537363 -10.941118 0.005800 0.493700 1.356500 20.949509 2.833447 -5.747746 -1.580873 -11.195549 31.325472 1.375246 -9.046724 -14.438353 -0.004300 -0.423800 1.164500 1.288167 -1.647391 -1.118555 -0.574643 -0.854461 2.797989 5.415934 -0.789820 9.479716 -0.484700 -0.076000 2.476300 -78.121278 4.116942 32.695207 10.415347 -24.396421 -3.623500 -0.775670 -1.712620 -21.430678 -7.125000 0.000000 0.000000 73.416098 -5.229638 30.810830 -12.372479 26.374058 -4.290946 1.160387 0.737659 -2.685310 7.125000 0.000000 0.000000 
